<svg width="25px" height="25px" sid="Layer_1" data-name="Layer 1" xmlns="http://www.w3.org/2000/svg" viewBox="0 0 476.22 476.22">
  <title>logo</title>
  <g id="open-virus-icon">
    <path id="Shape" d="M443.68,205.57a50.13,50.13,0,0,0-47.05,33.07H377.15a122.13,122.13,0,0,0-23.64-57l13.82-13.84a50,50,0,1,0-24-24l-13.84,13.85a122.11,122.11,0,0,0-57-23.64v-19.5a50.16,50.16,0,1,0-33.9,0V134a122.07,122.07,0,0,0-57,23.64l-13.85-13.85a50.1,50.1,0,1,0-24,24l13.83,13.84a122.18,122.18,0,0,0-23.64,57H114.55a50,50,0,1,0-47.06,67h0a50.1,50.1,0,0,0,47.05-33.06H134a122.07,122.07,0,0,0,23.64,57l-13.83,13.83a50,50,0,1,0,24,24l13.85-13.85a122.07,122.07,0,0,0,57,23.64v19.49a50,50,0,0,0,17,97.07h0a50,50,0,0,0,16.94-97.06v-19.5a122.16,122.16,0,0,0,57-23.63l13.85,13.84a50.06,50.06,0,1,0,24-24l-13.83-13.84a122.19,122.19,0,0,0,23.65-57h19.48a50.09,50.09,0,0,0,47,33.06h0a50,50,0,1,0,0-100ZM318.71,318l-.35.32c-.11.11-.21.23-.32.35a88.59,88.59,0,0,1-61.46,25.7c-.33,0-.66-.05-1-.05s-.66,0-1,.05a88.93,88.93,0,0,1-87.84-88.35c0-.16,0-.31,0-.47s0-.31,0-.47a88.92,88.92,0,0,1,88.36-88.36l.47,0,.47,0a88.52,88.52,0,0,1,62,25.7c.12.12.21.24.33.36s.24.21.36.33a88.55,88.55,0,0,1,25.69,61.36c0,.36-.06.71-.06,1.08s0,.72.06,1.08A88.54,88.54,0,0,1,318.71,318ZM377.2,111.2a16.11,16.11,0,1,1,0,22.78A16,16,0,0,1,377.2,111.2ZM255.59,51.39A16.11,16.11,0,1,1,239.48,67.5,16.13,16.13,0,0,1,255.59,51.39ZM111.2,134a16.13,16.13,0,0,1,0-22.78,16.11,16.11,0,0,1,22.78,0,16.11,16.11,0,0,1-11.39,27.5A16,16,0,0,1,111.2,134ZM67.5,271.7a16.11,16.11,0,1,1,16.11-16.11A16.13,16.13,0,0,1,67.5,271.7ZM134,400a16.11,16.11,0,1,1,0-22.78A16,16,0,0,1,134,400Zm133,55.09a16,16,0,0,1-11.38,4.72v17l0-17a16.11,16.11,0,1,1,16.11-16.11A16,16,0,0,1,267,455.07Zm133-77.86a16.1,16.1,0,1,1-11.38-4.72A16,16,0,0,1,400,377.21Zm43.7-105.51v0a16.11,16.11,0,1,1,16.11-16.11A16.12,16.12,0,0,1,443.68,271.7Z" transform="translate(-17.48 -17.48)"/>
  </g>
</svg>
